PathFileType	4	(X/Y/Z)	pose_F01_0-96.trc
DataRate	CameraRate	NumFrames	NumMarkers	Units	OrigDataRate	OrigDataStartFrame	OrigNumFrames
30	30	7	21	m	30	84	96
Frame#	Time	CHip			RHip			RKnee			RAnkle			RBigToe			RSmallToe			RHeel			LHip			LKnee			LAnkle			LBigToe			LSmallToe			LHeel			Neck			Nose			RShoulder			RElbow			RWrist			LShoulder			LElbow			LWrist			
		X1	Y1	Z1	X2	Y2	Z2	X3	Y3	Z3	X4	Y4	Z4	X5	Y5	Z5	X6	Y6	Z6	X7	Y7	Z7	X8	Y8	Z8	X9	Y9	Z9	X10	Y10	Z10	X11	Y11	Z11	X12	Y12	Z12	X13	Y13	Z13	X14	Y14	Z14	X15	Y15	Z15	X16	Y16	Z16	X17	Y17	Z17	X18	Y18	Z18	X19	Y19	Z19	X20	Y20	Z20	X21	Y21	Z21	
84	2.8	-0.2015657843698846	1.8776376782339534	-0.5164868032192865	-0.20802873103625516	1.875993780628221	-0.4562964006501281	-0.2057096884973132	1.742747201786573	-0.3991468489409065	-0.20830195325057438	1.6100060801555338	-0.3125784799574972	-0.21440390972533838	1.591905749338861	-0.4344805582687659	-0.2065366794716888	1.6003397865234386	-0.4123237955319815	-0.20572827308813282	1.6064086928738268	-0.31566642164651887	-0.19319646064781373	1.878381042225708	-0.5816036737037548	-0.20048301948575575	1.7219222042680105	-0.5935580889827612	-0.1606237169292871	1.5937268511922453	-0.6463022452194037	-0.18087764319647778	1.550691216054953	-0.6409971257737843	-0.1712990240274943	1.5580642693231213	-0.6766749022106181	-0.15240553889597477	1.58633032791371	-0.6454020900242049	-0.1781867927238738	2.0423828198584046	-0.5800349558215077	-0.1990206567799512	2.113746159315369	-0.5764909903236528	-0.18181198382621278	2.0360258196119285	-0.5166040922295966	-0.1887414453049111	1.951098919972191	-0.43661957053407563	-0.20512248188735221	1.8781327150911789	-0.36970276284549025	-0.17149525614390151	2.049804327761602	-0.6448909944770526	-0.22851882609642052	2.080832057661793	-0.6290307162619605	-0.2787867888454418	2.122996261344339	-0.6139165878799757
85	2.8333333333333335	-0.20096970357924573	1.8743736065530463	-0.5214635570590829	-0.20931671195335605	1.8737878175417617	-0.4592220886155211	-0.20673049641694763	1.7428470925112036	-0.4024786905904116	-0.20796061470286314	1.6104557090228353	-0.3133016267408173	-0.21440390972533838	1.591905749338861	-0.4344805582687659	-0.2065366794716888	1.6003397865234386	-0.4123237955319815	-0.20571787633760202	1.6062947795023002	-0.31595972045440285	-0.19235060519751512	1.876115928175686	-0.5868792415615831	-0.20069568552103875	1.7216469430030332	-0.5933743745600902	-0.16103211465232026	1.5936672270177847	-0.6454668988818141	-0.18174773889930698	1.5507099439332515	-0.6441720699092084	-0.17125938300596483	1.558042601862469	-0.6767663993344456	-0.15175611943209438	1.5878958093815603	-0.641956874035227	-0.1770096490711631	2.0426157992479124	-0.5854867593290818	-0.19984700165813782	2.11386996012375	-0.5797007175983995	-0.18081497997233034	2.0353552609736365	-0.5219155237619729	-0.1887414453049111	1.951098919972191	-0.43661957053407563	-0.20512248188735221	1.8781327150911789	-0.36970276284549025	-0.17020566177588423	2.048999275963813	-0.6505515240352134	-0.2324489086454814	2.0787794201702634	-0.6324816263499166	-0.28210723716991104	2.122413718621464	-0.5977013930888334
86	2.8666666666666667	-0.1997567233149087	1.8756530235756477	-0.5272719366621855	-0.20927480963567985	1.8740546287714779	-0.468097007011484	-0.2076544751312893	1.745545048760115	-0.4063272592304992	-0.20823721336298137	1.6119944387645955	-0.3131669486149139	-0.21440390972533838	1.591905749338861	-0.4344805582687659	-0.2065366794716888	1.6003397865234386	-0.4123237955319815	-0.2058649640001902	1.6069406188932547	-0.31574132385906334	-0.19318543587421227	1.8762105573406138	-0.5901981754401275	-0.20260730195518595	1.7212627278110537	-0.5997452822926679	-0.16113467422915473	1.5908638845456118	-0.6451748095477191	-0.18251464575049767	1.5494146539198443	-0.647678920985264	-0.17185596105174455	1.5592949607755013	-0.6805399847319259	-0.15000409789538643	1.5837709424403144	-0.6432659398800503	-0.17674887976902068	2.042249118949663	-0.5933705930793702	-0.19973539305391724	2.111673534606113	-0.5875879115703923	-0.1805101022852418	2.0379611132818263	-0.5304750465101613	-0.1887414453049111	1.951098919972191	-0.43661957053407563	-0.20512248188735221	1.8781327150911789	-0.36970276284549025	-0.17186562185227727	2.0467719806081135	-0.6557629654332056	-0.23443717633709263	2.078731117812836	-0.6387845914865526	-0.28138128260465317	2.123792402946066	-0.5794956119303719
87	2.9	-0.20071050672985002	1.8731340586472378	-0.5301920123360153	-0.20728826732143543	1.8740990341793844	-0.4705648506811497	-0.20618333969140487	1.7414450263869017	-0.4029398251469893	-0.20780779124163384	1.611148671022353	-0.31243598033261055	-0.21440390972533838	1.591905749338861	-0.4344805582687659	-0.2065366794716888	1.6003397865234386	-0.4123237955319815	-0.2050266402058692	1.6022618488499283	-0.3161325564604822	-0.19407617390571613	1.8721761687941012	-0.5926751904445988	-0.20374786144157725	1.7119204922661124	-0.5976278567277546	-0.1617872724628692	1.5923005134237849	-0.6489346758540745	-0.18468574036853674	1.5493813753851864	-0.6455977416791103	-0.17198928899384625	1.5594976525724424	-0.6804431772196939	-0.15242609095055448	1.5834251071759347	-0.645086413349122	-0.17560797421916055	2.0413215463460914	-0.598926210745776	-0.1978312841915857	2.109261825389292	-0.58949189115934	-0.17835857155605048	2.0363733052882305	-0.5415408466462708	-0.1887414453049111	1.951098919972191	-0.43661957053407563	-0.20512248188735221	1.8781327150911789	-0.36970276284549025	-0.17279206889223622	2.0480826939321424	-0.65941271403429	-0.2314802623012648	2.0754162191813847	-0.6656265877939654	-0.2785643206128249	2.1161982237431887	-0.5699056887136852
88	2.933333333333333	-0.20202896640418086	1.8750595560082928	-0.5368948096203643	-0.2057471881638894	1.875761827910628	-0.4762991166187669	-0.20508954790376924	1.7426251632215022	-0.4088844271921933	-0.20737836912028632	1.6103029032801106	-0.3117050120503072	-0.21440390972533838	1.591905749338861	-0.4344805582687659	-0.2065366794716888	1.6003397865234386	-0.4123237955319815	-0.20360585195551933	1.60020945048291	-0.3129489411935749	-0.19458149159928895	1.8753554619050008	-0.596344588012028	-0.2078829163804948	1.7141756632978007	-0.5934703801427103	-0.16203409133593183	1.5937541695244588	-0.648606297991441	-0.18187489056591066	1.5510164801806383	-0.6442646178487573	-0.17230715157432533	1.5586000173764356	-0.6798354541687815	-0.15208570249830222	1.5866390435820605	-0.6414489602716741	-0.1764300385942231	2.0426597277500935	-0.6018906028570484	-0.19663522520700127	2.1093448036092624	-0.5946610476770037	-0.17838993710582385	2.0355982849607	-0.5409110424067994	-0.1887414453049111	1.951098919972191	-0.43661957053407563	-0.20512248188735221	1.8781327150911789	-0.36970276284549025	-0.174401744270106	2.0504430260856	-0.6658681644680159	-0.23587388081475785	2.07301939042765	-0.6608862441557117	-0.2804971360555993	2.1190080328841585	-0.5763513803973703
89	2.966666666666667	-0.19938954875240178	1.87352810359538	-0.5445714841942627	-0.2041997108043913	1.8745313086679818	-0.48704216485230123	-0.20607984361564	1.7399210245313457	-0.4117955073423503	-0.2069489469989388	1.609457135537868	-0.31097404376800386	-0.21440390972533838	1.591905749338861	-0.4344805582687659	-0.2065366794716888	1.6003397865234386	-0.4123237955319815	-0.2036590848326476	1.6006408127311922	-0.3128997082132411	-0.19175950788040755	1.8739633910548277	-0.6039871068532692	-0.20437128272379493	1.7142738070262418	-0.5972715200829755	-0.1618119874507938	1.5922592868861178	-0.648847158292862	-0.18252401991613074	1.549401558804983	-0.6476662804949921	-0.17226760224458748	1.5582824545673577	-0.6798513119845789	-0.15270570620618606	1.5849798532042947	-0.6447793062873385	-0.1751589181487151	2.042665750936108	-0.6074554875651513	-0.19835594555570268	2.108323706680409	-0.6002480655910518	-0.1730462747252397	2.0366974282194037	-0.5508611693986827	-0.1887414453049111	1.951098919972191	-0.43661957053407563	-0.20512248188735221	1.8781327150911789	-0.36970276284549025	-0.17530924572877907	2.0485514149635944	-0.6687129603611898	-0.23643030675284077	2.0981885969844605	-0.662369933263791	-0.28396267959190763	2.1256700575542484	-0.6236303434070776
90	3.0	-0.19873942771048467	1.8707048765954266	-0.5526289929556651	-0.20271288964674009	1.8716805784707622	-0.49209120401417156	-0.20375892327418949	1.7394292567683023	-0.4144895516745317	-0.20651952487759126	1.6086113677956255	-0.3102430754857005	-0.21440390972533838	1.591905749338861	-0.4344805582687659	-0.2065366794716888	1.6003397865234386	-0.4123237955319815	-0.20196444024803586	1.603835617895538	-0.3153446562955814	-0.1931002958791829	1.871185394594881	-0.6100253115707724	-0.2066573091385621	1.7106117472907802	-0.5988214180441622	-0.16272066213842434	1.592356150766591	-0.6521712194288741	-0.18163251128862057	1.5496168599996847	-0.6444225528064114	-0.1713912035619762	1.5582591084771895	-0.6767115018449672	-0.153276288404111	1.5860877522594599	-0.64871236024968	-0.17402607820650634	2.0393250143288206	-0.6125813206955772	-0.19655056116446637	2.1047589549571355	-0.6022237843589009	-0.1720428109031422	2.0350059277715817	-0.5565134258261687	-0.1887414453049111	1.951098919972191	-0.43661957053407563	-0.20512248188735221	1.8781327150911789	-0.36970276284549025	-0.17318760771460473	2.0485013711159996	-0.6709212677297285	-0.22138081763622852	2.072801659572591	-0.6694609028708579	-0.267931578552214	2.1016815476437345	-0.6721450989965965
